<?xml version="1.0" encoding="UTF-8"?>
<svg width="100px" height="100px" viewBox="0 0 100 100" version="1.1" xmlns="http://www.w3.org/2000/svg" xmlns:xlink="http://www.w3.org/1999/xlink">
    <!-- Generator: Sketch 64 (93537) - https://sketch.com -->
    <title>favicon</title>
    <desc>Created with Sketch.</desc>
    <g id="favicon" stroke="none" stroke-width="1" fill="none" fill-rule="evenodd">
        <g id="page/welcome/logo/icon">
            <g id="outer-circles-se" transform="translate(69.841270, 69.841270)" fill="#D9D9D9">
                <circle id="Oval-Copy-159" cx="8.73015873" cy="27.7777778" r="2.38095238"></circle>
                <circle id="Oval-Copy-183" cx="21.4285714" cy="21.4285714" r="2.38095238"></circle>
                <circle id="Oval-Copy-187" cx="21.4285714" cy="15.0793651" r="2.38095238"></circle>
                <circle id="Oval-Copy-191" cx="21.4285714" cy="27.7777778" r="2.38095238"></circle>
                <circle id="Oval-Copy-215" cx="15.0793651" cy="21.4285714" r="2.38095238"></circle>
                <circle id="Oval-Copy-223" cx="15.0793651" cy="27.7777778" r="2.38095238"></circle>
                <circle id="Oval-Copy-239" cx="2.38095238" cy="27.7777778" r="2.38095238"></circle>
                <circle id="Oval-Copy-243" cx="27.7777778" cy="8.73015873" r="2.38095238"></circle>
                <circle id="Oval-Copy-247" cx="27.7777778" cy="21.4285714" r="2.38095238"></circle>
                <circle id="Oval-Copy-251" cx="27.7777778" cy="15.0793651" r="2.38095238"></circle>
                <circle id="Oval-Copy-253" cx="27.7777778" cy="2.38095238" r="2.38095238"></circle>
                <circle id="Oval-Copy-255" cx="27.7777778" cy="27.7777778" r="2.38095238"></circle>
            </g>
            <g id="outer-circles-sw" transform="translate(0.000000, 69.841270)" fill="#D9D9D9">
                <circle id="Oval-Copy-130" cx="2.38095238" cy="8.73015873" r="2.38095238"></circle>
                <circle id="Oval-Copy-134" cx="2.38095238" cy="21.4285714" r="2.38095238"></circle>
                <circle id="Oval-Copy-138" cx="2.38095238" cy="15.0793651" r="2.38095238"></circle>
                <circle id="Oval-Copy-140" cx="2.38095238" cy="2.38095238" r="2.38095238"></circle>
                <circle id="Oval-Copy-142" cx="2.38095238" cy="27.7777778" r="2.38095238"></circle>
                <circle id="Oval-Copy-158" cx="27.7777778" cy="27.7777778" r="2.38095238"></circle>
                <circle id="Oval-Copy-166" cx="15.0793651" cy="21.4285714" r="2.38095238"></circle>
                <circle id="Oval-Copy-174" cx="15.0793651" cy="27.7777778" r="2.38095238"></circle>
                <circle id="Oval-Copy-198" cx="8.73015873" cy="21.4285714" r="2.38095238"></circle>
                <circle id="Oval-Copy-202" cx="8.73015873" cy="15.0793651" r="2.38095238"></circle>
                <circle id="Oval-Copy-206" cx="8.73015873" cy="27.7777778" r="2.38095238"></circle>
                <circle id="Oval-Copy-238" cx="21.4285714" cy="27.7777778" r="2.38095238"></circle>
            </g>
            <g id="outer-circles-ne" transform="translate(69.841270, 0.000000)" fill="#D9D9D9">
                <circle id="Oval-Copy-72" cx="8.73015873" cy="2.38095238" r="2.38095238"></circle>
                <circle id="Oval-Copy-88" cx="21.4285714" cy="2.38095238" r="2.38095238"></circle>
                <circle id="Oval-Copy-90" cx="21.4285714" cy="15.0793651" r="2.38095238"></circle>
                <circle id="Oval-Copy-92" cx="21.4285714" cy="8.73015873" r="2.38095238"></circle>
                <circle id="Oval-Copy-104" cx="15.0793651" cy="2.38095238" r="2.38095238"></circle>
                <circle id="Oval-Copy-108" cx="15.0793651" cy="8.73015873" r="2.38095238"></circle>
                <circle id="Oval-Copy-112" cx="2.38095238" cy="2.38095238" r="2.38095238"></circle>
                <circle id="Oval-Copy-120" cx="27.7777778" cy="2.38095238" r="2.38095238"></circle>
                <circle id="Oval-Copy-121" cx="27.7777778" cy="27.7777778" r="2.38095238"></circle>
                <circle id="Oval-Copy-122" cx="27.7777778" cy="15.0793651" r="2.38095238"></circle>
                <circle id="Oval-Copy-124" cx="27.7777778" cy="8.73015873" r="2.38095238"></circle>
                <circle id="Oval-Copy-126" cx="27.7777778" cy="21.4285714" r="2.38095238"></circle>
            </g>
            <g id="outer-circles-nw" fill="#D9D9D9">
                <circle id="Oval" cx="2.38095238" cy="2.38095238" r="2.38095238"></circle>
                <circle id="Oval-Copy-32" cx="2.38095238" cy="27.7777778" r="2.38095238"></circle>
                <circle id="Oval-Copy-16" cx="2.38095238" cy="15.0793651" r="2.38095238"></circle>
                <circle id="Oval-Copy-8" cx="2.38095238" cy="8.73015873" r="2.38095238"></circle>
                <circle id="Oval-Copy-17" cx="2.38095238" cy="21.4285714" r="2.38095238"></circle>
                <circle id="Oval-Copy-4" cx="27.7777778" cy="2.38095238" r="2.38095238"></circle>
                <circle id="Oval-Copy-2" cx="15.0793651" cy="2.38095238" r="2.38095238"></circle>
                <circle id="Oval-Copy-10" cx="15.0793651" cy="8.73015873" r="2.38095238"></circle>
                <circle id="Oval-Copy" cx="8.73015873" cy="2.38095238" r="2.38095238"></circle>
                <circle id="Oval-Copy-24" cx="8.73015873" cy="15.0793651" r="2.38095238"></circle>
                <circle id="Oval-Copy-12" cx="8.73015873" cy="8.73015873" r="2.38095238"></circle>
                <circle id="Oval-Copy-3" cx="21.4285714" cy="2.38095238" r="2.38095238"></circle>
            </g>
            <g id="inner-circles" fill="#AF52DE">
                <circle id="Oval-Copy-128" cx="2.38095238" cy="53.1746032" r="2.38095238"></circle>
                <circle id="Oval-Copy-64" cx="53.1746032" cy="2.38095238" r="2.38095238"></circle>
                <circle id="Oval-Copy-129" cx="53.1746032" cy="53.1746032" r="2.38095238"></circle>
                <circle id="Oval-Copy-65" cx="53.1746032" cy="27.7777778" r="2.38095238"></circle>
                <circle id="Oval-Copy-131" cx="53.1746032" cy="78.5714286" r="2.38095238"></circle>
                <circle id="Oval-Copy-132" cx="2.38095238" cy="65.8730159" r="2.38095238"></circle>
                <circle id="Oval-Copy-66" cx="53.1746032" cy="15.0793651" r="2.38095238"></circle>
                <circle id="Oval-Copy-133" cx="53.1746032" cy="65.8730159" r="2.38095238"></circle>
                <circle id="Oval-Copy-33" cx="2.38095238" cy="40.4761905" r="2.38095238"></circle>
                <circle id="Oval-Copy-67" cx="53.1746032" cy="40.4761905" r="2.38095238"></circle>
                <circle id="Oval-Copy-135" cx="53.1746032" cy="91.2698413" r="2.38095238"></circle>
                <circle id="Oval-Copy-136" cx="2.38095238" cy="59.5238095" r="2.38095238"></circle>
                <circle id="Oval-Copy-68" cx="53.1746032" cy="8.73015873" r="2.38095238"></circle>
                <circle id="Oval-Copy-137" cx="53.1746032" cy="59.5238095" r="2.38095238"></circle>
                <circle id="Oval-Copy-34" cx="2.38095238" cy="34.1269841" r="2.38095238"></circle>
                <circle id="Oval-Copy-69" cx="53.1746032" cy="34.1269841" r="2.38095238"></circle>
                <circle id="Oval-Copy-139" cx="53.1746032" cy="84.9206349" r="2.38095238"></circle>
                <circle id="Oval-Copy-70" cx="53.1746032" cy="21.4285714" r="2.38095238"></circle>
                <circle id="Oval-Copy-141" cx="53.1746032" cy="72.2222222" r="2.38095238"></circle>
                <circle id="Oval-Copy-35" cx="2.38095238" cy="46.8253968" r="2.38095238"></circle>
                <circle id="Oval-Copy-71" cx="53.1746032" cy="46.8253968" r="2.38095238"></circle>
                <circle id="Oval-Copy-143" cx="53.1746032" cy="97.6190476" r="2.38095238"></circle>
                <circle id="Oval-Copy-144" cx="27.7777778" cy="53.1746032" r="2.38095238"></circle>
                <circle id="Oval-Copy-145" cx="78.5714286" cy="53.1746032" r="2.38095238"></circle>
                <circle id="Oval-Copy-36" cx="27.7777778" cy="27.7777778" r="2.38095238"></circle>
                <circle id="Oval-Copy-146" cx="27.7777778" cy="78.5714286" r="2.38095238"></circle>
                <circle id="Oval-Copy-73" cx="78.5714286" cy="27.7777778" r="2.38095238"></circle>
                <circle id="Oval-Copy-147" cx="78.5714286" cy="78.5714286" r="2.38095238"></circle>
                <circle id="Oval-Copy-18" cx="27.7777778" cy="15.0793651" r="2.38095238"></circle>
                <circle id="Oval-Copy-148" cx="27.7777778" cy="65.8730159" r="2.38095238"></circle>
                <circle id="Oval-Copy-74" cx="78.5714286" cy="15.0793651" r="2.38095238"></circle>
                <circle id="Oval-Copy-149" cx="78.5714286" cy="65.8730159" r="2.38095238"></circle>
                <circle id="Oval-Copy-37" cx="27.7777778" cy="40.4761905" r="2.38095238"></circle>
                <circle id="Oval-Copy-150" cx="27.7777778" cy="91.2698413" r="2.38095238"></circle>
                <circle id="Oval-Copy-75" cx="78.5714286" cy="40.4761905" r="2.38095238"></circle>
                <circle id="Oval-Copy-151" cx="78.5714286" cy="91.2698413" r="2.38095238"></circle>
                <circle id="Oval-Copy-9" cx="27.7777778" cy="8.73015873" r="2.38095238"></circle>
                <circle id="Oval-Copy-152" cx="27.7777778" cy="59.5238095" r="2.38095238"></circle>
                <circle id="Oval-Copy-76" cx="78.5714286" cy="8.73015873" r="2.38095238"></circle>
                <circle id="Oval-Copy-153" cx="78.5714286" cy="59.5238095" r="2.38095238"></circle>
                <circle id="Oval-Copy-38" cx="27.7777778" cy="34.1269841" r="2.38095238"></circle>
                <circle id="Oval-Copy-154" cx="27.7777778" cy="84.9206349" r="2.38095238"></circle>
                <circle id="Oval-Copy-77" cx="78.5714286" cy="34.1269841" r="2.38095238"></circle>
                <circle id="Oval-Copy-155" cx="78.5714286" cy="84.9206349" r="2.38095238"></circle>
                <circle id="Oval-Copy-19" cx="27.7777778" cy="21.4285714" r="2.38095238"></circle>
                <circle id="Oval-Copy-156" cx="27.7777778" cy="72.2222222" r="2.38095238"></circle>
                <circle id="Oval-Copy-78" cx="78.5714286" cy="21.4285714" r="2.38095238"></circle>
                <circle id="Oval-Copy-157" cx="78.5714286" cy="72.2222222" r="2.38095238"></circle>
                <circle id="Oval-Copy-39" cx="27.7777778" cy="46.8253968" r="2.38095238"></circle>
                <circle id="Oval-Copy-79" cx="78.5714286" cy="46.8253968" r="2.38095238"></circle>
                <circle id="Oval-Copy-160" cx="15.0793651" cy="53.1746032" r="2.38095238"></circle>
                <circle id="Oval-Copy-80" cx="65.8730159" cy="2.38095238" r="2.38095238"></circle>
                <circle id="Oval-Copy-161" cx="65.8730159" cy="53.1746032" r="2.38095238"></circle>
                <circle id="Oval-Copy-40" cx="15.0793651" cy="27.7777778" r="2.38095238"></circle>
                <circle id="Oval-Copy-162" cx="15.0793651" cy="78.5714286" r="2.38095238"></circle>
                <circle id="Oval-Copy-81" cx="65.8730159" cy="27.7777778" r="2.38095238"></circle>
                <circle id="Oval-Copy-163" cx="65.8730159" cy="78.5714286" r="2.38095238"></circle>
                <circle id="Oval-Copy-20" cx="15.0793651" cy="15.0793651" r="2.38095238"></circle>
                <circle id="Oval-Copy-164" cx="15.0793651" cy="65.8730159" r="2.38095238"></circle>
                <circle id="Oval-Copy-82" cx="65.8730159" cy="15.0793651" r="2.38095238"></circle>
                <circle id="Oval-Copy-165" cx="65.8730159" cy="65.8730159" r="2.38095238"></circle>
                <circle id="Oval-Copy-41" cx="15.0793651" cy="40.4761905" r="2.38095238"></circle>
                <circle id="Oval-Copy-83" cx="65.8730159" cy="40.4761905" r="2.38095238"></circle>
                <circle id="Oval-Copy-167" cx="65.8730159" cy="91.2698413" r="2.38095238"></circle>
                <circle id="Oval-Copy-168" cx="15.0793651" cy="59.5238095" r="2.38095238"></circle>
                <circle id="Oval-Copy-84" cx="65.8730159" cy="8.73015873" r="2.38095238"></circle>
                <circle id="Oval-Copy-169" cx="65.8730159" cy="59.5238095" r="2.38095238"></circle>
                <circle id="Oval-Copy-42" cx="15.0793651" cy="34.1269841" r="2.38095238"></circle>
                <circle id="Oval-Copy-170" cx="15.0793651" cy="84.9206349" r="2.38095238"></circle>
                <circle id="Oval-Copy-85" cx="65.8730159" cy="34.1269841" r="2.38095238"></circle>
                <circle id="Oval-Copy-171" cx="65.8730159" cy="84.9206349" r="2.38095238"></circle>
                <circle id="Oval-Copy-21" cx="15.0793651" cy="21.4285714" r="2.38095238"></circle>
                <circle id="Oval-Copy-172" cx="15.0793651" cy="72.2222222" r="2.38095238"></circle>
                <circle id="Oval-Copy-86" cx="65.8730159" cy="21.4285714" r="2.38095238"></circle>
                <circle id="Oval-Copy-173" cx="65.8730159" cy="72.2222222" r="2.38095238"></circle>
                <circle id="Oval-Copy-43" cx="15.0793651" cy="46.8253968" r="2.38095238"></circle>
                <circle id="Oval-Copy-87" cx="65.8730159" cy="46.8253968" r="2.38095238"></circle>
                <circle id="Oval-Copy-175" cx="65.8730159" cy="97.6190476" r="2.38095238"></circle>
                <circle id="Oval-Copy-5" cx="40.4761905" cy="2.38095238" r="2.38095238"></circle>
                <circle id="Oval-Copy-176" cx="40.4761905" cy="53.1746032" r="2.38095238"></circle>
                <circle id="Oval-Copy-177" cx="91.2698413" cy="53.1746032" r="2.38095238"></circle>
                <circle id="Oval-Copy-44" cx="40.4761905" cy="27.7777778" r="2.38095238"></circle>
                <circle id="Oval-Copy-178" cx="40.4761905" cy="78.5714286" r="2.38095238"></circle>
                <circle id="Oval-Copy-89" cx="91.2698413" cy="27.7777778" r="2.38095238"></circle>
                <circle id="Oval-Copy-179" cx="91.2698413" cy="78.5714286" r="2.38095238"></circle>
                <circle id="Oval-Copy-22" cx="40.4761905" cy="15.0793651" r="2.38095238"></circle>
                <circle id="Oval-Copy-180" cx="40.4761905" cy="65.8730159" r="2.38095238"></circle>
                <circle id="Oval-Copy-181" cx="91.2698413" cy="65.8730159" r="2.38095238"></circle>
                <circle id="Oval-Copy-45" cx="40.4761905" cy="40.4761905" r="2.38095238"></circle>
                <circle id="Oval-Copy-182" cx="40.4761905" cy="91.2698413" r="2.38095238"></circle>
                <circle id="Oval-Copy-91" cx="91.2698413" cy="40.4761905" r="2.38095238"></circle>
                <circle id="Oval-Copy-11" cx="40.4761905" cy="8.73015873" r="2.38095238"></circle>
                <circle id="Oval-Copy-184" cx="40.4761905" cy="59.5238095" r="2.38095238"></circle>
                <circle id="Oval-Copy-185" cx="91.2698413" cy="59.5238095" r="2.38095238"></circle>
                <circle id="Oval-Copy-46" cx="40.4761905" cy="34.1269841" r="2.38095238"></circle>
                <circle id="Oval-Copy-186" cx="40.4761905" cy="84.9206349" r="2.38095238"></circle>
                <circle id="Oval-Copy-93" cx="91.2698413" cy="34.1269841" r="2.38095238"></circle>
                <circle id="Oval-Copy-23" cx="40.4761905" cy="21.4285714" r="2.38095238"></circle>
                <circle id="Oval-Copy-188" cx="40.4761905" cy="72.2222222" r="2.38095238"></circle>
                <circle id="Oval-Copy-94" cx="91.2698413" cy="21.4285714" r="2.38095238"></circle>
                <circle id="Oval-Copy-189" cx="91.2698413" cy="72.2222222" r="2.38095238"></circle>
                <circle id="Oval-Copy-47" cx="40.4761905" cy="46.8253968" r="2.38095238"></circle>
                <circle id="Oval-Copy-190" cx="40.4761905" cy="97.6190476" r="2.38095238"></circle>
                <circle id="Oval-Copy-95" cx="91.2698413" cy="46.8253968" r="2.38095238"></circle>
                <circle id="Oval-Copy-192" cx="8.73015873" cy="53.1746032" r="2.38095238"></circle>
                <circle id="Oval-Copy-96" cx="59.5238095" cy="2.38095238" r="2.38095238"></circle>
                <circle id="Oval-Copy-193" cx="59.5238095" cy="53.1746032" r="2.38095238"></circle>
                <circle id="Oval-Copy-48" cx="8.73015873" cy="27.7777778" r="2.38095238"></circle>
                <circle id="Oval-Copy-194" cx="8.73015873" cy="78.5714286" r="2.38095238"></circle>
                <circle id="Oval-Copy-97" cx="59.5238095" cy="27.7777778" r="2.38095238"></circle>
                <circle id="Oval-Copy-195" cx="59.5238095" cy="78.5714286" r="2.38095238"></circle>
                <circle id="Oval-Copy-196" cx="8.73015873" cy="65.8730159" r="2.38095238"></circle>
                <circle id="Oval-Copy-98" cx="59.5238095" cy="15.0793651" r="2.38095238"></circle>
                <circle id="Oval-Copy-197" cx="59.5238095" cy="65.8730159" r="2.38095238"></circle>
                <circle id="Oval-Copy-49" cx="8.73015873" cy="40.4761905" r="2.38095238"></circle>
                <circle id="Oval-Copy-99" cx="59.5238095" cy="40.4761905" r="2.38095238"></circle>
                <circle id="Oval-Copy-199" cx="59.5238095" cy="91.2698413" r="2.38095238"></circle>
                <circle id="Oval-Copy-200" cx="8.73015873" cy="59.5238095" r="2.38095238"></circle>
                <circle id="Oval-Copy-100" cx="59.5238095" cy="8.73015873" r="2.38095238"></circle>
                <circle id="Oval-Copy-201" cx="59.5238095" cy="59.5238095" r="2.38095238"></circle>
                <circle id="Oval-Copy-50" cx="8.73015873" cy="34.1269841" r="2.38095238"></circle>
                <circle id="Oval-Copy-101" cx="59.5238095" cy="34.1269841" r="2.38095238"></circle>
                <circle id="Oval-Copy-203" cx="59.5238095" cy="84.9206349" r="2.38095238"></circle>
                <circle id="Oval-Copy-25" cx="8.73015873" cy="21.4285714" r="2.38095238"></circle>
                <circle id="Oval-Copy-204" cx="8.73015873" cy="72.2222222" r="2.38095238"></circle>
                <circle id="Oval-Copy-102" cx="59.5238095" cy="21.4285714" r="2.38095238"></circle>
                <circle id="Oval-Copy-205" cx="59.5238095" cy="72.2222222" r="2.38095238"></circle>
                <circle id="Oval-Copy-51" cx="8.73015873" cy="46.8253968" r="2.38095238"></circle>
                <circle id="Oval-Copy-103" cx="59.5238095" cy="46.8253968" r="2.38095238"></circle>
                <circle id="Oval-Copy-207" cx="59.5238095" cy="97.6190476" r="2.38095238"></circle>
                <circle id="Oval-Copy-6" cx="34.1269841" cy="2.38095238" r="2.38095238"></circle>
                <circle id="Oval-Copy-208" cx="34.1269841" cy="53.1746032" r="2.38095238"></circle>
                <circle id="Oval-Copy-209" cx="84.9206349" cy="53.1746032" r="2.38095238"></circle>
                <circle id="Oval-Copy-52" cx="34.1269841" cy="27.7777778" r="2.38095238"></circle>
                <circle id="Oval-Copy-210" cx="34.1269841" cy="78.5714286" r="2.38095238"></circle>
                <circle id="Oval-Copy-105" cx="84.9206349" cy="27.7777778" r="2.38095238"></circle>
                <circle id="Oval-Copy-211" cx="84.9206349" cy="78.5714286" r="2.38095238"></circle>
                <circle id="Oval-Copy-26" cx="34.1269841" cy="15.0793651" r="2.38095238"></circle>
                <circle id="Oval-Copy-212" cx="34.1269841" cy="65.8730159" r="2.38095238"></circle>
                <circle id="Oval-Copy-106" cx="84.9206349" cy="15.0793651" r="2.38095238"></circle>
                <circle id="Oval-Copy-213" cx="84.9206349" cy="65.8730159" r="2.38095238"></circle>
                <circle id="Oval-Copy-53" cx="34.1269841" cy="40.4761905" r="2.38095238"></circle>
                <circle id="Oval-Copy-214" cx="34.1269841" cy="91.2698413" r="2.38095238"></circle>
                <circle id="Oval-Copy-107" cx="84.9206349" cy="40.4761905" r="2.38095238"></circle>
                <circle id="Oval-Copy-13" cx="34.1269841" cy="8.73015873" r="2.38095238"></circle>
                <circle id="Oval-Copy-216" cx="34.1269841" cy="59.5238095" r="2.38095238"></circle>
                <circle id="Oval-Copy-217" cx="84.9206349" cy="59.5238095" r="2.38095238"></circle>
                <circle id="Oval-Copy-54" cx="34.1269841" cy="34.1269841" r="2.38095238"></circle>
                <circle id="Oval-Copy-218" cx="34.1269841" cy="84.9206349" r="2.38095238"></circle>
                <circle id="Oval-Copy-109" cx="84.9206349" cy="34.1269841" r="2.38095238"></circle>
                <circle id="Oval-Copy-219" cx="84.9206349" cy="84.9206349" r="2.38095238"></circle>
                <circle id="Oval-Copy-27" cx="34.1269841" cy="21.4285714" r="2.38095238"></circle>
                <circle id="Oval-Copy-220" cx="34.1269841" cy="72.2222222" r="2.38095238"></circle>
                <circle id="Oval-Copy-110" cx="84.9206349" cy="21.4285714" r="2.38095238"></circle>
                <circle id="Oval-Copy-221" cx="84.9206349" cy="72.2222222" r="2.38095238"></circle>
                <circle id="Oval-Copy-55" cx="34.1269841" cy="46.8253968" r="2.38095238"></circle>
                <circle id="Oval-Copy-222" cx="34.1269841" cy="97.6190476" r="2.38095238"></circle>
                <circle id="Oval-Copy-111" cx="84.9206349" cy="46.8253968" r="2.38095238"></circle>
                <circle id="Oval-Copy-224" cx="21.4285714" cy="53.1746032" r="2.38095238"></circle>
                <circle id="Oval-Copy-225" cx="72.2222222" cy="53.1746032" r="2.38095238"></circle>
                <circle id="Oval-Copy-56" cx="21.4285714" cy="27.7777778" r="2.38095238"></circle>
                <circle id="Oval-Copy-226" cx="21.4285714" cy="78.5714286" r="2.38095238"></circle>
                <circle id="Oval-Copy-113" cx="72.2222222" cy="27.7777778" r="2.38095238"></circle>
                <circle id="Oval-Copy-227" cx="72.2222222" cy="78.5714286" r="2.38095238"></circle>
                <circle id="Oval-Copy-28" cx="21.4285714" cy="15.0793651" r="2.38095238"></circle>
                <circle id="Oval-Copy-228" cx="21.4285714" cy="65.8730159" r="2.38095238"></circle>
                <circle id="Oval-Copy-114" cx="72.2222222" cy="15.0793651" r="2.38095238"></circle>
                <circle id="Oval-Copy-229" cx="72.2222222" cy="65.8730159" r="2.38095238"></circle>
                <circle id="Oval-Copy-57" cx="21.4285714" cy="40.4761905" r="2.38095238"></circle>
                <circle id="Oval-Copy-230" cx="21.4285714" cy="91.2698413" r="2.38095238"></circle>
                <circle id="Oval-Copy-115" cx="72.2222222" cy="40.4761905" r="2.38095238"></circle>
                <circle id="Oval-Copy-231" cx="72.2222222" cy="91.2698413" r="2.38095238"></circle>
                <circle id="Oval-Copy-14" cx="21.4285714" cy="8.73015873" r="2.38095238"></circle>
                <circle id="Oval-Copy-232" cx="21.4285714" cy="59.5238095" r="2.38095238"></circle>
                <circle id="Oval-Copy-116" cx="72.2222222" cy="8.73015873" r="2.38095238"></circle>
                <circle id="Oval-Copy-233" cx="72.2222222" cy="59.5238095" r="2.38095238"></circle>
                <circle id="Oval-Copy-58" cx="21.4285714" cy="34.1269841" r="2.38095238"></circle>
                <circle id="Oval-Copy-234" cx="21.4285714" cy="84.9206349" r="2.38095238"></circle>
                <circle id="Oval-Copy-117" cx="72.2222222" cy="34.1269841" r="2.38095238"></circle>
                <circle id="Oval-Copy-235" cx="72.2222222" cy="84.9206349" r="2.38095238"></circle>
                <circle id="Oval-Copy-29" cx="21.4285714" cy="21.4285714" r="2.38095238"></circle>
                <circle id="Oval-Copy-236" cx="21.4285714" cy="72.2222222" r="2.38095238"></circle>
                <circle id="Oval-Copy-118" cx="72.2222222" cy="21.4285714" r="2.38095238"></circle>
                <circle id="Oval-Copy-237" cx="72.2222222" cy="72.2222222" r="2.38095238"></circle>
                <circle id="Oval-Copy-59" cx="21.4285714" cy="46.8253968" r="2.38095238"></circle>
                <circle id="Oval-Copy-119" cx="72.2222222" cy="46.8253968" r="2.38095238"></circle>
                <circle id="Oval-Copy-7" cx="46.8253968" cy="2.38095238" r="2.38095238"></circle>
                <circle id="Oval-Copy-240" cx="46.8253968" cy="53.1746032" r="2.38095238"></circle>
                <circle id="Oval-Copy-241" cx="97.6190476" cy="53.1746032" r="2.38095238"></circle>
                <circle id="Oval-Copy-60" cx="46.8253968" cy="27.7777778" r="2.38095238"></circle>
                <circle id="Oval-Copy-242" cx="46.8253968" cy="78.5714286" r="2.38095238"></circle>
                <circle id="Oval-Copy-30" cx="46.8253968" cy="15.0793651" r="2.38095238"></circle>
                <circle id="Oval-Copy-244" cx="46.8253968" cy="65.8730159" r="2.38095238"></circle>
                <circle id="Oval-Copy-245" cx="97.6190476" cy="65.8730159" r="2.38095238"></circle>
                <circle id="Oval-Copy-61" cx="46.8253968" cy="40.4761905" r="2.38095238"></circle>
                <circle id="Oval-Copy-246" cx="46.8253968" cy="91.2698413" r="2.38095238"></circle>
                <circle id="Oval-Copy-123" cx="97.6190476" cy="40.4761905" r="2.38095238"></circle>
                <circle id="Oval-Copy-15" cx="46.8253968" cy="8.73015873" r="2.38095238"></circle>
                <circle id="Oval-Copy-248" cx="46.8253968" cy="59.5238095" r="2.38095238"></circle>
                <circle id="Oval-Copy-249" cx="97.6190476" cy="59.5238095" r="2.38095238"></circle>
                <circle id="Oval-Copy-62" cx="46.8253968" cy="34.1269841" r="2.38095238"></circle>
                <circle id="Oval-Copy-250" cx="46.8253968" cy="84.9206349" r="2.38095238"></circle>
                <circle id="Oval-Copy-125" cx="97.6190476" cy="34.1269841" r="2.38095238"></circle>
                <circle id="Oval-Copy-31" cx="46.8253968" cy="21.4285714" r="2.38095238"></circle>
                <circle id="Oval-Copy-252" cx="46.8253968" cy="72.2222222" r="2.38095238"></circle>
                <circle id="Oval-Copy-63" cx="46.8253968" cy="46.8253968" r="2.38095238"></circle>
                <circle id="Oval-Copy-254" cx="46.8253968" cy="97.6190476" r="2.38095238"></circle>
                <circle id="Oval-Copy-127" cx="97.6190476" cy="46.8253968" r="2.38095238"></circle>
            </g>
        </g>
    </g>
</svg>