<?xml version="1.0" encoding="UTF-8"?>
<svg width="512px" height="512px" viewBox="0 0 512 512" version="1.1" xmlns="http://www.w3.org/2000/svg" xmlns:xlink="http://www.w3.org/1999/xlink">
    <!-- Generator: Sketch 64 (93537) - https://sketch.com -->
    <title>Icon</title>
    <desc>Created with Sketch.</desc>
    <g id="Icon" stroke="none" stroke-width="1" fill="none" fill-rule="evenodd">
        <rect id="Background" fill="#F8F4FB" x="0" y="0" width="512" height="512"></rect>
        <g id="inner-circles" transform="translate(34.000000, 34.000000)" fill="#AF52DE">
            <circle id="Oval-Copy-128" cx="10.6190476" cy="237.15873" r="10.6190476"></circle>
            <circle id="Oval-Copy-64" cx="237.15873" cy="10.6190476" r="10.6190476"></circle>
            <circle id="Oval-Copy-129" cx="237.15873" cy="237.15873" r="10.6190476"></circle>
            <circle id="Oval-Copy-65" cx="237.15873" cy="123.888889" r="10.6190476"></circle>
            <circle id="Oval-Copy-131" cx="237.15873" cy="350.428571" r="10.6190476"></circle>
            <circle id="Oval-Copy-132" cx="10.6190476" cy="293.793651" r="10.6190476"></circle>
            <circle id="Oval-Copy-66" cx="237.15873" cy="67.2539683" r="10.6190476"></circle>
            <circle id="Oval-Copy-133" cx="237.15873" cy="293.793651" r="10.6190476"></circle>
            <circle id="Oval-Copy-33" cx="10.6190476" cy="180.52381" r="10.6190476"></circle>
            <circle id="Oval-Copy-67" cx="237.15873" cy="180.52381" r="10.6190476"></circle>
            <circle id="Oval-Copy-135" cx="237.15873" cy="407.063492" r="10.6190476"></circle>
            <circle id="Oval-Copy-136" cx="10.6190476" cy="265.47619" r="10.6190476"></circle>
            <circle id="Oval-Copy-68" cx="237.15873" cy="38.9365079" r="10.6190476"></circle>
            <circle id="Oval-Copy-137" cx="237.15873" cy="265.47619" r="10.6190476"></circle>
            <circle id="Oval-Copy-34" cx="10.6190476" cy="152.206349" r="10.6190476"></circle>
            <circle id="Oval-Copy-69" cx="237.15873" cy="152.206349" r="10.6190476"></circle>
            <circle id="Oval-Copy-139" cx="237.15873" cy="378.746032" r="10.6190476"></circle>
            <circle id="Oval-Copy-70" cx="237.15873" cy="95.5714286" r="10.6190476"></circle>
            <circle id="Oval-Copy-141" cx="237.15873" cy="322.111111" r="10.6190476"></circle>
            <circle id="Oval-Copy-35" cx="10.6190476" cy="208.84127" r="10.6190476"></circle>
            <circle id="Oval-Copy-71" cx="237.15873" cy="208.84127" r="10.6190476"></circle>
            <circle id="Oval-Copy-143" cx="237.15873" cy="435.380952" r="10.6190476"></circle>
            <circle id="Oval-Copy-144" cx="123.888889" cy="237.15873" r="10.6190476"></circle>
            <circle id="Oval-Copy-145" cx="350.428571" cy="237.15873" r="10.6190476"></circle>
            <circle id="Oval-Copy-36" cx="123.888889" cy="123.888889" r="10.6190476"></circle>
            <circle id="Oval-Copy-146" cx="123.888889" cy="350.428571" r="10.6190476"></circle>
            <circle id="Oval-Copy-73" cx="350.428571" cy="123.888889" r="10.6190476"></circle>
            <circle id="Oval-Copy-147" cx="350.428571" cy="350.428571" r="10.6190476"></circle>
            <circle id="Oval-Copy-18" cx="123.888889" cy="67.2539683" r="10.6190476"></circle>
            <circle id="Oval-Copy-148" cx="123.888889" cy="293.793651" r="10.6190476"></circle>
            <circle id="Oval-Copy-74" cx="350.428571" cy="67.2539683" r="10.6190476"></circle>
            <circle id="Oval-Copy-149" cx="350.428571" cy="293.793651" r="10.6190476"></circle>
            <circle id="Oval-Copy-37" cx="123.888889" cy="180.52381" r="10.6190476"></circle>
            <circle id="Oval-Copy-150" cx="123.888889" cy="407.063492" r="10.6190476"></circle>
            <circle id="Oval-Copy-75" cx="350.428571" cy="180.52381" r="10.6190476"></circle>
            <circle id="Oval-Copy-151" cx="350.428571" cy="407.063492" r="10.6190476"></circle>
            <circle id="Oval-Copy-9" cx="123.888889" cy="38.9365079" r="10.6190476"></circle>
            <circle id="Oval-Copy-152" cx="123.888889" cy="265.47619" r="10.6190476"></circle>
            <circle id="Oval-Copy-76" cx="350.428571" cy="38.9365079" r="10.6190476"></circle>
            <circle id="Oval-Copy-153" cx="350.428571" cy="265.47619" r="10.6190476"></circle>
            <circle id="Oval-Copy-38" cx="123.888889" cy="152.206349" r="10.6190476"></circle>
            <circle id="Oval-Copy-154" cx="123.888889" cy="378.746032" r="10.6190476"></circle>
            <circle id="Oval-Copy-77" cx="350.428571" cy="152.206349" r="10.6190476"></circle>
            <circle id="Oval-Copy-155" cx="350.428571" cy="378.746032" r="10.6190476"></circle>
            <circle id="Oval-Copy-19" cx="123.888889" cy="95.5714286" r="10.6190476"></circle>
            <circle id="Oval-Copy-156" cx="123.888889" cy="322.111111" r="10.6190476"></circle>
            <circle id="Oval-Copy-78" cx="350.428571" cy="95.5714286" r="10.6190476"></circle>
            <circle id="Oval-Copy-157" cx="350.428571" cy="322.111111" r="10.6190476"></circle>
            <circle id="Oval-Copy-39" cx="123.888889" cy="208.84127" r="10.6190476"></circle>
            <circle id="Oval-Copy-79" cx="350.428571" cy="208.84127" r="10.6190476"></circle>
            <circle id="Oval-Copy-160" cx="67.2539683" cy="237.15873" r="10.6190476"></circle>
            <circle id="Oval-Copy-80" cx="293.793651" cy="10.6190476" r="10.6190476"></circle>
            <circle id="Oval-Copy-161" cx="293.793651" cy="237.15873" r="10.6190476"></circle>
            <circle id="Oval-Copy-40" cx="67.2539683" cy="123.888889" r="10.6190476"></circle>
            <circle id="Oval-Copy-162" cx="67.2539683" cy="350.428571" r="10.6190476"></circle>
            <circle id="Oval-Copy-81" cx="293.793651" cy="123.888889" r="10.6190476"></circle>
            <circle id="Oval-Copy-163" cx="293.793651" cy="350.428571" r="10.6190476"></circle>
            <circle id="Oval-Copy-20" cx="67.2539683" cy="67.2539683" r="10.6190476"></circle>
            <circle id="Oval-Copy-164" cx="67.2539683" cy="293.793651" r="10.6190476"></circle>
            <circle id="Oval-Copy-82" cx="293.793651" cy="67.2539683" r="10.6190476"></circle>
            <circle id="Oval-Copy-165" cx="293.793651" cy="293.793651" r="10.6190476"></circle>
            <circle id="Oval-Copy-41" cx="67.2539683" cy="180.52381" r="10.6190476"></circle>
            <circle id="Oval-Copy-83" cx="293.793651" cy="180.52381" r="10.6190476"></circle>
            <circle id="Oval-Copy-167" cx="293.793651" cy="407.063492" r="10.6190476"></circle>
            <circle id="Oval-Copy-168" cx="67.2539683" cy="265.47619" r="10.6190476"></circle>
            <circle id="Oval-Copy-84" cx="293.793651" cy="38.9365079" r="10.6190476"></circle>
            <circle id="Oval-Copy-169" cx="293.793651" cy="265.47619" r="10.6190476"></circle>
            <circle id="Oval-Copy-42" cx="67.2539683" cy="152.206349" r="10.6190476"></circle>
            <circle id="Oval-Copy-170" cx="67.2539683" cy="378.746032" r="10.6190476"></circle>
            <circle id="Oval-Copy-85" cx="293.793651" cy="152.206349" r="10.6190476"></circle>
            <circle id="Oval-Copy-171" cx="293.793651" cy="378.746032" r="10.6190476"></circle>
            <circle id="Oval-Copy-21" cx="67.2539683" cy="95.5714286" r="10.6190476"></circle>
            <circle id="Oval-Copy-172" cx="67.2539683" cy="322.111111" r="10.6190476"></circle>
            <circle id="Oval-Copy-86" cx="293.793651" cy="95.5714286" r="10.6190476"></circle>
            <circle id="Oval-Copy-173" cx="293.793651" cy="322.111111" r="10.6190476"></circle>
            <circle id="Oval-Copy-43" cx="67.2539683" cy="208.84127" r="10.6190476"></circle>
            <circle id="Oval-Copy-87" cx="293.793651" cy="208.84127" r="10.6190476"></circle>
            <circle id="Oval-Copy-175" cx="293.793651" cy="435.380952" r="10.6190476"></circle>
            <circle id="Oval-Copy-5" cx="180.52381" cy="10.6190476" r="10.6190476"></circle>
            <circle id="Oval-Copy-176" cx="180.52381" cy="237.15873" r="10.6190476"></circle>
            <circle id="Oval-Copy-177" cx="407.063492" cy="237.15873" r="10.6190476"></circle>
            <circle id="Oval-Copy-44" cx="180.52381" cy="123.888889" r="10.6190476"></circle>
            <circle id="Oval-Copy-178" cx="180.52381" cy="350.428571" r="10.6190476"></circle>
            <circle id="Oval-Copy-89" cx="407.063492" cy="123.888889" r="10.6190476"></circle>
            <circle id="Oval-Copy-179" cx="407.063492" cy="350.428571" r="10.6190476"></circle>
            <circle id="Oval-Copy-22" cx="180.52381" cy="67.2539683" r="10.6190476"></circle>
            <circle id="Oval-Copy-180" cx="180.52381" cy="293.793651" r="10.6190476"></circle>
            <circle id="Oval-Copy-181" cx="407.063492" cy="293.793651" r="10.6190476"></circle>
            <circle id="Oval-Copy-45" cx="180.52381" cy="180.52381" r="10.6190476"></circle>
            <circle id="Oval-Copy-182" cx="180.52381" cy="407.063492" r="10.6190476"></circle>
            <circle id="Oval-Copy-91" cx="407.063492" cy="180.52381" r="10.6190476"></circle>
            <circle id="Oval-Copy-11" cx="180.52381" cy="38.9365079" r="10.6190476"></circle>
            <circle id="Oval-Copy-184" cx="180.52381" cy="265.47619" r="10.6190476"></circle>
            <circle id="Oval-Copy-185" cx="407.063492" cy="265.47619" r="10.6190476"></circle>
            <circle id="Oval-Copy-46" cx="180.52381" cy="152.206349" r="10.6190476"></circle>
            <circle id="Oval-Copy-186" cx="180.52381" cy="378.746032" r="10.6190476"></circle>
            <circle id="Oval-Copy-93" cx="407.063492" cy="152.206349" r="10.6190476"></circle>
            <circle id="Oval-Copy-23" cx="180.52381" cy="95.5714286" r="10.6190476"></circle>
            <circle id="Oval-Copy-188" cx="180.52381" cy="322.111111" r="10.6190476"></circle>
            <circle id="Oval-Copy-94" cx="407.063492" cy="95.5714286" r="10.6190476"></circle>
            <circle id="Oval-Copy-189" cx="407.063492" cy="322.111111" r="10.6190476"></circle>
            <circle id="Oval-Copy-47" cx="180.52381" cy="208.84127" r="10.6190476"></circle>
            <circle id="Oval-Copy-190" cx="180.52381" cy="435.380952" r="10.6190476"></circle>
            <circle id="Oval-Copy-95" cx="407.063492" cy="208.84127" r="10.6190476"></circle>
            <circle id="Oval-Copy-192" cx="38.9365079" cy="237.15873" r="10.6190476"></circle>
            <circle id="Oval-Copy-96" cx="265.47619" cy="10.6190476" r="10.6190476"></circle>
            <circle id="Oval-Copy-193" cx="265.47619" cy="237.15873" r="10.6190476"></circle>
            <circle id="Oval-Copy-48" cx="38.9365079" cy="123.888889" r="10.6190476"></circle>
            <circle id="Oval-Copy-194" cx="38.9365079" cy="350.428571" r="10.6190476"></circle>
            <circle id="Oval-Copy-97" cx="265.47619" cy="123.888889" r="10.6190476"></circle>
            <circle id="Oval-Copy-195" cx="265.47619" cy="350.428571" r="10.6190476"></circle>
            <circle id="Oval-Copy-196" cx="38.9365079" cy="293.793651" r="10.6190476"></circle>
            <circle id="Oval-Copy-98" cx="265.47619" cy="67.2539683" r="10.6190476"></circle>
            <circle id="Oval-Copy-197" cx="265.47619" cy="293.793651" r="10.6190476"></circle>
            <circle id="Oval-Copy-49" cx="38.9365079" cy="180.52381" r="10.6190476"></circle>
            <circle id="Oval-Copy-99" cx="265.47619" cy="180.52381" r="10.6190476"></circle>
            <circle id="Oval-Copy-199" cx="265.47619" cy="407.063492" r="10.6190476"></circle>
            <circle id="Oval-Copy-200" cx="38.9365079" cy="265.47619" r="10.6190476"></circle>
            <circle id="Oval-Copy-100" cx="265.47619" cy="38.9365079" r="10.6190476"></circle>
            <circle id="Oval-Copy-201" cx="265.47619" cy="265.47619" r="10.6190476"></circle>
            <circle id="Oval-Copy-50" cx="38.9365079" cy="152.206349" r="10.6190476"></circle>
            <circle id="Oval-Copy-101" cx="265.47619" cy="152.206349" r="10.6190476"></circle>
            <circle id="Oval-Copy-203" cx="265.47619" cy="378.746032" r="10.6190476"></circle>
            <circle id="Oval-Copy-25" cx="38.9365079" cy="95.5714286" r="10.6190476"></circle>
            <circle id="Oval-Copy-204" cx="38.9365079" cy="322.111111" r="10.6190476"></circle>
            <circle id="Oval-Copy-102" cx="265.47619" cy="95.5714286" r="10.6190476"></circle>
            <circle id="Oval-Copy-205" cx="265.47619" cy="322.111111" r="10.6190476"></circle>
            <circle id="Oval-Copy-51" cx="38.9365079" cy="208.84127" r="10.6190476"></circle>
            <circle id="Oval-Copy-103" cx="265.47619" cy="208.84127" r="10.6190476"></circle>
            <circle id="Oval-Copy-207" cx="265.47619" cy="435.380952" r="10.6190476"></circle>
            <circle id="Oval-Copy-6" cx="152.206349" cy="10.6190476" r="10.6190476"></circle>
            <circle id="Oval-Copy-208" cx="152.206349" cy="237.15873" r="10.6190476"></circle>
            <circle id="Oval-Copy-209" cx="378.746032" cy="237.15873" r="10.6190476"></circle>
            <circle id="Oval-Copy-52" cx="152.206349" cy="123.888889" r="10.6190476"></circle>
            <circle id="Oval-Copy-210" cx="152.206349" cy="350.428571" r="10.6190476"></circle>
            <circle id="Oval-Copy-105" cx="378.746032" cy="123.888889" r="10.6190476"></circle>
            <circle id="Oval-Copy-211" cx="378.746032" cy="350.428571" r="10.6190476"></circle>
            <circle id="Oval-Copy-26" cx="152.206349" cy="67.2539683" r="10.6190476"></circle>
            <circle id="Oval-Copy-212" cx="152.206349" cy="293.793651" r="10.6190476"></circle>
            <circle id="Oval-Copy-106" cx="378.746032" cy="67.2539683" r="10.6190476"></circle>
            <circle id="Oval-Copy-213" cx="378.746032" cy="293.793651" r="10.6190476"></circle>
            <circle id="Oval-Copy-53" cx="152.206349" cy="180.52381" r="10.6190476"></circle>
            <circle id="Oval-Copy-214" cx="152.206349" cy="407.063492" r="10.6190476"></circle>
            <circle id="Oval-Copy-107" cx="378.746032" cy="180.52381" r="10.6190476"></circle>
            <circle id="Oval-Copy-13" cx="152.206349" cy="38.9365079" r="10.6190476"></circle>
            <circle id="Oval-Copy-216" cx="152.206349" cy="265.47619" r="10.6190476"></circle>
            <circle id="Oval-Copy-217" cx="378.746032" cy="265.47619" r="10.6190476"></circle>
            <circle id="Oval-Copy-54" cx="152.206349" cy="152.206349" r="10.6190476"></circle>
            <circle id="Oval-Copy-218" cx="152.206349" cy="378.746032" r="10.6190476"></circle>
            <circle id="Oval-Copy-109" cx="378.746032" cy="152.206349" r="10.6190476"></circle>
            <circle id="Oval-Copy-219" cx="378.746032" cy="378.746032" r="10.6190476"></circle>
            <circle id="Oval-Copy-27" cx="152.206349" cy="95.5714286" r="10.6190476"></circle>
            <circle id="Oval-Copy-220" cx="152.206349" cy="322.111111" r="10.6190476"></circle>
            <circle id="Oval-Copy-110" cx="378.746032" cy="95.5714286" r="10.6190476"></circle>
            <circle id="Oval-Copy-221" cx="378.746032" cy="322.111111" r="10.6190476"></circle>
            <circle id="Oval-Copy-55" cx="152.206349" cy="208.84127" r="10.6190476"></circle>
            <circle id="Oval-Copy-222" cx="152.206349" cy="435.380952" r="10.6190476"></circle>
            <circle id="Oval-Copy-111" cx="378.746032" cy="208.84127" r="10.6190476"></circle>
            <circle id="Oval-Copy-224" cx="95.5714286" cy="237.15873" r="10.6190476"></circle>
            <circle id="Oval-Copy-225" cx="322.111111" cy="237.15873" r="10.6190476"></circle>
            <circle id="Oval-Copy-56" cx="95.5714286" cy="123.888889" r="10.6190476"></circle>
            <circle id="Oval-Copy-226" cx="95.5714286" cy="350.428571" r="10.6190476"></circle>
            <circle id="Oval-Copy-113" cx="322.111111" cy="123.888889" r="10.6190476"></circle>
            <circle id="Oval-Copy-227" cx="322.111111" cy="350.428571" r="10.6190476"></circle>
            <circle id="Oval-Copy-28" cx="95.5714286" cy="67.2539683" r="10.6190476"></circle>
            <circle id="Oval-Copy-228" cx="95.5714286" cy="293.793651" r="10.6190476"></circle>
            <circle id="Oval-Copy-114" cx="322.111111" cy="67.2539683" r="10.6190476"></circle>
            <circle id="Oval-Copy-229" cx="322.111111" cy="293.793651" r="10.6190476"></circle>
            <circle id="Oval-Copy-57" cx="95.5714286" cy="180.52381" r="10.6190476"></circle>
            <circle id="Oval-Copy-230" cx="95.5714286" cy="407.063492" r="10.6190476"></circle>
            <circle id="Oval-Copy-115" cx="322.111111" cy="180.52381" r="10.6190476"></circle>
            <circle id="Oval-Copy-231" cx="322.111111" cy="407.063492" r="10.6190476"></circle>
            <circle id="Oval-Copy-14" cx="95.5714286" cy="38.9365079" r="10.6190476"></circle>
            <circle id="Oval-Copy-232" cx="95.5714286" cy="265.47619" r="10.6190476"></circle>
            <circle id="Oval-Copy-116" cx="322.111111" cy="38.9365079" r="10.6190476"></circle>
            <circle id="Oval-Copy-233" cx="322.111111" cy="265.47619" r="10.6190476"></circle>
            <circle id="Oval-Copy-58" cx="95.5714286" cy="152.206349" r="10.6190476"></circle>
            <circle id="Oval-Copy-234" cx="95.5714286" cy="378.746032" r="10.6190476"></circle>
            <circle id="Oval-Copy-117" cx="322.111111" cy="152.206349" r="10.6190476"></circle>
            <circle id="Oval-Copy-235" cx="322.111111" cy="378.746032" r="10.6190476"></circle>
            <circle id="Oval-Copy-29" cx="95.5714286" cy="95.5714286" r="10.6190476"></circle>
            <circle id="Oval-Copy-236" cx="95.5714286" cy="322.111111" r="10.6190476"></circle>
            <circle id="Oval-Copy-118" cx="322.111111" cy="95.5714286" r="10.6190476"></circle>
            <circle id="Oval-Copy-237" cx="322.111111" cy="322.111111" r="10.6190476"></circle>
            <circle id="Oval-Copy-59" cx="95.5714286" cy="208.84127" r="10.6190476"></circle>
            <circle id="Oval-Copy-119" cx="322.111111" cy="208.84127" r="10.6190476"></circle>
            <circle id="Oval-Copy-7" cx="208.84127" cy="10.6190476" r="10.6190476"></circle>
            <circle id="Oval-Copy-240" cx="208.84127" cy="237.15873" r="10.6190476"></circle>
            <circle id="Oval-Copy-241" cx="435.380952" cy="237.15873" r="10.6190476"></circle>
            <circle id="Oval-Copy-60" cx="208.84127" cy="123.888889" r="10.6190476"></circle>
            <circle id="Oval-Copy-242" cx="208.84127" cy="350.428571" r="10.6190476"></circle>
            <circle id="Oval-Copy-30" cx="208.84127" cy="67.2539683" r="10.6190476"></circle>
            <circle id="Oval-Copy-244" cx="208.84127" cy="293.793651" r="10.6190476"></circle>
            <circle id="Oval-Copy-245" cx="435.380952" cy="293.793651" r="10.6190476"></circle>
            <circle id="Oval-Copy-61" cx="208.84127" cy="180.52381" r="10.6190476"></circle>
            <circle id="Oval-Copy-246" cx="208.84127" cy="407.063492" r="10.6190476"></circle>
            <circle id="Oval-Copy-123" cx="435.380952" cy="180.52381" r="10.6190476"></circle>
            <circle id="Oval-Copy-15" cx="208.84127" cy="38.9365079" r="10.6190476"></circle>
            <circle id="Oval-Copy-248" cx="208.84127" cy="265.47619" r="10.6190476"></circle>
            <circle id="Oval-Copy-249" cx="435.380952" cy="265.47619" r="10.6190476"></circle>
            <circle id="Oval-Copy-62" cx="208.84127" cy="152.206349" r="10.6190476"></circle>
            <circle id="Oval-Copy-250" cx="208.84127" cy="378.746032" r="10.6190476"></circle>
            <circle id="Oval-Copy-125" cx="435.380952" cy="152.206349" r="10.6190476"></circle>
            <circle id="Oval-Copy-31" cx="208.84127" cy="95.5714286" r="10.6190476"></circle>
            <circle id="Oval-Copy-252" cx="208.84127" cy="322.111111" r="10.6190476"></circle>
            <circle id="Oval-Copy-63" cx="208.84127" cy="208.84127" r="10.6190476"></circle>
            <circle id="Oval-Copy-254" cx="208.84127" cy="435.380952" r="10.6190476"></circle>
            <circle id="Oval-Copy-127" cx="435.380952" cy="208.84127" r="10.6190476"></circle>
        </g>
    </g>
</svg>